<svg xmlns="http://www.w3.org/2000/svg" viewBox="0 0 100 100" width="512" height="512">
  <defs>
    <radialGradient id="bg-arcona" cx="50%" cy="40%" r="60%">
      <stop offset="0%" stop-color="hsl(72, 62%, 24%)" stop-opacity="0.3"/>
      <stop offset="100%" stop-color="hsl(236, 26%, 6%)" stop-opacity="1"/>
    </radialGradient>
    <radialGradient id="glow-arcona" cx="50%" cy="40%" r="30%">
      <stop offset="0%" stop-color="hsl(56, 66%, 46%)" stop-opacity="0.15"/>
      <stop offset="100%" stop-color="hsl(56, 66%, 46%)" stop-opacity="0"/>
    </radialGradient>
  </defs>

  <!-- Background -->
  <rect width="100" height="100" fill="hsl(236, 26%, 6%)"/>
  <rect width="100" height="100" fill="url(#bg-arcona)"/>
  <polygon points="96,58 99.5,60 99.5,64 96,66 92.5,64 92.5,60" fill="none" stroke="hsl(56, 66%, 46%)" stroke-width="0.3" opacity="0.1"/><polygon points="48,27 51.5,29 51.5,33 48,35 44.5,33 44.5,29" fill="none" stroke="hsl(56, 66%, 46%)" stroke-width="0.3" opacity="0.1"/><polygon points="24,11 27.5,13 27.5,17 24,19 20.5,17 20.5,13" fill="none" stroke="hsl(56, 66%, 46%)" stroke-width="0.3" opacity="0.1"/><polygon points="62,3 65.5,5 65.5,9 62,11 58.5,9 58.5,5" fill="none" stroke="hsl(56, 66%, 46%)" stroke-width="0.3" opacity="0.1"/><polygon points="31,49 34.5,51 34.5,55 31,57 27.5,55 27.5,51" fill="none" stroke="hsl(56, 66%, 46%)" stroke-width="0.3" opacity="0.1"/><polygon points="15,22 18.5,24 18.5,28 15,30 11.5,28 11.5,24" fill="none" stroke="hsl(56, 66%, 46%)" stroke-width="0.3" opacity="0.1"/>

  <!-- Ambient glow -->
  <ellipse cx="50" cy="42" rx="35" ry="30" fill="url(#glow-arcona)"/>

  <!-- Head / Body silhouette -->
  <ellipse cx="50" cy="37" rx="16" ry="19" fill="hsl(72, 62%, 24%)" opacity="0.9"/>
  <ellipse cx="50" cy="37" rx="15" ry="18" fill="hsl(236, 26%, 6%)" opacity="0.3"/>

  <!-- Shoulders -->
  <ellipse cx="50" cy="64" rx="24" ry="12" fill="hsl(72, 62%, 24%)" opacity="0.7"/>

  <!-- Decorations (horns, tails, markings) -->
  <line x1="61" y1="18" x2="60" y2="24" stroke="hsl(56, 66%, 46%)" stroke-width="0.5" opacity="0.3"/><line x1="63" y1="18" x2="62" y2="24" stroke="hsl(56, 66%, 46%)" stroke-width="0.5" opacity="0.3"/><line x1="49" y1="37" x2="48" y2="43" stroke="hsl(56, 66%, 46%)" stroke-width="0.5" opacity="0.3"/><line x1="57" y1="27" x2="56" y2="31" stroke="hsl(56, 66%, 46%)" stroke-width="0.5" opacity="0.3"/><line x1="46" y1="41" x2="47" y2="46" stroke="hsl(56, 66%, 46%)" stroke-width="0.5" opacity="0.3"/><line x1="40" y1="29" x2="41" y2="35" stroke="hsl(56, 66%, 46%)" stroke-width="0.5" opacity="0.3"/><line x1="52" y1="42" x2="53" y2="46" stroke="hsl(56, 66%, 46%)" stroke-width="0.5" opacity="0.3"/><line x1="58" y1="49" x2="59" y2="52" stroke="hsl(56, 66%, 46%)" stroke-width="0.5" opacity="0.3"/><line x1="61" y1="33" x2="60" y2="38" stroke="hsl(56, 66%, 46%)" stroke-width="0.5" opacity="0.3"/><line x1="48" y1="44" x2="49" y2="48" stroke="hsl(56, 66%, 46%)" stroke-width="0.5" opacity="0.3"/><line x1="56" y1="50" x2="57" y2="53" stroke="hsl(56, 66%, 46%)" stroke-width="0.5" opacity="0.3"/><line x1="45" y1="53" x2="44" y2="56" stroke="hsl(56, 66%, 46%)" stroke-width="0.5" opacity="0.3"/>

  <!-- Eyes -->
  <ellipse cx="44" cy="35" rx="6" ry="4.199999999999999" fill="#111"/>
  <ellipse cx="56" cy="35" rx="6" ry="4.199999999999999" fill="#111"/>
  
  <ellipse cx="44" cy="35" rx="3" ry="2.4000000000000004" fill="hsl(73, 93%, 54%)" opacity="0.9"/>
  <ellipse cx="56" cy="35" rx="3" ry="2.4000000000000004" fill="hsl(73, 93%, 54%)" opacity="0.9"/>
  <circle cx="45" cy="34.5" r="0.8999999999999999" fill="white" opacity="0.8"/>
  <circle cx="57" cy="34.5" r="0.8999999999999999" fill="white" opacity="0.8"/>
  

  <!-- Stat bars -->
  <rect x="8" y="89" width="8" height="3" rx="1" fill="#ef4444" opacity="0.25"/><rect x="22.5" y="86" width="8" height="6" rx="1" fill="#22c55e" opacity="0.25"/><rect x="37" y="86" width="8" height="6" rx="1" fill="#3b82f6" opacity="0.25"/><rect x="51.5" y="86" width="8" height="6" rx="1" fill="#f59e0b" opacity="0.25"/><rect x="66" y="83" width="8" height="9" rx="1" fill="#a855f7" opacity="0.25"/><rect x="80.5" y="86" width="8" height="6" rx="1" fill="#ec4899" opacity="0.25"/>

  <!-- Vignette -->
  <rect width="100" height="100" fill="url(#bg-arcona)" opacity="0.3"/>
</svg>