<svg xmlns="http://www.w3.org/2000/svg" viewBox="0 0 100 100" width="512" height="512">
  <defs>
    <radialGradient id="bg-caamasi" cx="50%" cy="40%" r="60%">
      <stop offset="0%" stop-color="hsl(93, 43%, 23%)" stop-opacity="0.3"/>
      <stop offset="100%" stop-color="hsl(183, 13%, 7%)" stop-opacity="1"/>
    </radialGradient>
    <radialGradient id="glow-caamasi" cx="50%" cy="40%" r="30%">
      <stop offset="0%" stop-color="hsl(3, 53%, 50%)" stop-opacity="0.15"/>
      <stop offset="100%" stop-color="hsl(3, 53%, 50%)" stop-opacity="0"/>
    </radialGradient>
  </defs>

  <!-- Background -->
  <rect width="100" height="100" fill="hsl(183, 13%, 7%)"/>
  <rect width="100" height="100" fill="url(#bg-caamasi)"/>
  <circle cx="23" cy="47" r="0.5" fill="hsl(92, 72%, 53%)" opacity="0.15"/><circle cx="61" cy="23" r="0.5" fill="hsl(92, 72%, 53%)" opacity="0.15"/><circle cx="80" cy="61" r="0.5" fill="hsl(92, 72%, 53%)" opacity="0.15"/><circle cx="90" cy="30" r="0.5" fill="hsl(92, 72%, 53%)" opacity="0.15"/><circle cx="95" cy="65" r="0.5" fill="hsl(92, 72%, 53%)" opacity="0.15"/><circle cx="47" cy="82" r="0.5" fill="hsl(92, 72%, 53%)" opacity="0.15"/><circle cx="23" cy="91" r="0.5" fill="hsl(92, 72%, 53%)" opacity="0.15"/><circle cx="61" cy="95" r="0.5" fill="hsl(92, 72%, 53%)" opacity="0.15"/><circle cx="30" cy="47" r="0.5" fill="hsl(92, 72%, 53%)" opacity="0.15"/><circle cx="65" cy="73" r="0.5" fill="hsl(92, 72%, 53%)" opacity="0.15"/>

  <!-- Ambient glow -->
  <ellipse cx="50" cy="42" rx="35" ry="30" fill="url(#glow-caamasi)"/>

  <!-- Head / Body silhouette -->
  <ellipse cx="50" cy="37" rx="18" ry="19" fill="hsl(93, 43%, 23%)" opacity="0.9"/>
  <ellipse cx="50" cy="37" rx="17" ry="18" fill="hsl(183, 13%, 7%)" opacity="0.3"/>

  <!-- Shoulders -->
  <ellipse cx="50" cy="64" rx="26" ry="12" fill="hsl(93, 43%, 23%)" opacity="0.7"/>

  <!-- Decorations (horns, tails, markings) -->
  <line x1="38" y1="46" x2="39" y2="52" stroke="hsl(3, 53%, 50%)" stroke-width="0.5" opacity="0.3"/><line x1="36" y1="32" x2="37" y2="38" stroke="hsl(3, 53%, 50%)" stroke-width="0.5" opacity="0.3"/><line x1="35" y1="25" x2="34" y2="31" stroke="hsl(3, 53%, 50%)" stroke-width="0.5" opacity="0.3"/><line x1="35" y1="21" x2="34" y2="25" stroke="hsl(3, 53%, 50%)" stroke-width="0.5" opacity="0.3"/><line x1="50" y1="19" x2="51" y2="24" stroke="hsl(3, 53%, 50%)" stroke-width="0.5" opacity="0.3"/><line x1="42" y1="37" x2="43" y2="41" stroke="hsl(3, 53%, 50%)" stroke-width="0.5" opacity="0.3"/><line x1="38" y1="46" x2="39" y2="51" stroke="hsl(3, 53%, 50%)" stroke-width="0.5" opacity="0.3"/><line x1="36" y1="51" x2="37" y2="57" stroke="hsl(3, 53%, 50%)" stroke-width="0.5" opacity="0.3"/><line x1="35" y1="34" x2="34" y2="40" stroke="hsl(3, 53%, 50%)" stroke-width="0.5" opacity="0.3"/><line x1="50" y1="45" x2="51" y2="51" stroke="hsl(3, 53%, 50%)" stroke-width="0.5" opacity="0.3"/><line x1="57" y1="31" x2="56" y2="35" stroke="hsl(3, 53%, 50%)" stroke-width="0.5" opacity="0.3"/><line x1="46" y1="43" x2="47" y2="46" stroke="hsl(3, 53%, 50%)" stroke-width="0.5" opacity="0.3"/>

  <!-- Eyes -->
  <ellipse cx="45" cy="35" rx="6" ry="4.199999999999999" fill="#111"/>
  <ellipse cx="55" cy="35" rx="6" ry="4.199999999999999" fill="#111"/>
  
  <ellipse cx="45" cy="35" rx="3" ry="2.4000000000000004" fill="hsl(92, 72%, 53%)" opacity="0.9"/>
  <ellipse cx="55" cy="35" rx="3" ry="2.4000000000000004" fill="hsl(92, 72%, 53%)" opacity="0.9"/>
  <circle cx="46" cy="34.5" r="0.8999999999999999" fill="white" opacity="0.8"/>
  <circle cx="56" cy="34.5" r="0.8999999999999999" fill="white" opacity="0.8"/>
  

  <!-- Stat bars -->
  <rect x="8" y="86" width="8" height="6" rx="1" fill="#ef4444" opacity="0.25"/><rect x="22.5" y="86" width="8" height="6" rx="1" fill="#22c55e" opacity="0.25"/><rect x="37" y="86" width="8" height="6" rx="1" fill="#3b82f6" opacity="0.25"/><rect x="51.5" y="89" width="8" height="3" rx="1" fill="#f59e0b" opacity="0.25"/><rect x="66" y="83" width="8" height="9" rx="1" fill="#a855f7" opacity="0.25"/><rect x="80.5" y="86" width="8" height="6" rx="1" fill="#ec4899" opacity="0.25"/>

  <!-- Vignette -->
  <rect width="100" height="100" fill="url(#bg-caamasi)" opacity="0.3"/>
</svg>