<svg xmlns="http://www.w3.org/2000/svg" viewBox="0 0 100 100" width="512" height="512">
  <defs>
    <radialGradient id="bg-iktotchi" cx="50%" cy="40%" r="60%">
      <stop offset="0%" stop-color="hsl(115, 65%, 34%)" stop-opacity="0.3"/>
      <stop offset="100%" stop-color="hsl(95, 25%, 9%)" stop-opacity="1"/>
    </radialGradient>
    <radialGradient id="glow-iktotchi" cx="50%" cy="40%" r="30%">
      <stop offset="0%" stop-color="hsl(275, 85%, 52%)" stop-opacity="0.15"/>
      <stop offset="100%" stop-color="hsl(275, 85%, 52%)" stop-opacity="0"/>
    </radialGradient>
  </defs>

  <!-- Background -->
  <rect width="100" height="100" fill="hsl(95, 25%, 9%)"/>
  <rect width="100" height="100" fill="url(#bg-iktotchi)"/>
  <circle cx="95" cy="68" r="0.5" fill="hsl(116, 96%, 64%)" opacity="0.15"/><circle cx="97" cy="34" r="0.5" fill="hsl(116, 96%, 64%)" opacity="0.15"/><circle cx="48" cy="67" r="0.5" fill="hsl(116, 96%, 64%)" opacity="0.15"/><circle cx="74" cy="83" r="0.5" fill="hsl(116, 96%, 64%)" opacity="0.15"/><circle cx="37" cy="41" r="0.5" fill="hsl(116, 96%, 64%)" opacity="0.15"/><circle cx="68" cy="70" r="0.5" fill="hsl(116, 96%, 64%)" opacity="0.15"/><circle cx="34" cy="35" r="0.5" fill="hsl(116, 96%, 64%)" opacity="0.15"/><circle cx="67" cy="17" r="0.5" fill="hsl(116, 96%, 64%)" opacity="0.15"/><circle cx="83" cy="58" r="0.5" fill="hsl(116, 96%, 64%)" opacity="0.15"/><circle cx="41" cy="79" r="0.5" fill="hsl(116, 96%, 64%)" opacity="0.15"/>

  <!-- Ambient glow -->
  <ellipse cx="50" cy="42" rx="35" ry="30" fill="url(#glow-iktotchi)"/>

  <!-- Head / Body silhouette -->
  <ellipse cx="50" cy="37" rx="18" ry="19" fill="hsl(115, 65%, 34%)" opacity="0.9"/>
  <ellipse cx="50" cy="37" rx="17" ry="18" fill="hsl(95, 25%, 9%)" opacity="0.3"/>

  <!-- Shoulders -->
  <ellipse cx="50" cy="64" rx="26" ry="12" fill="hsl(115, 65%, 34%)" opacity="0.7"/>

  <!-- Decorations (horns, tails, markings) -->
  <line x1="40" y1="18" x2="41" y2="22" stroke="hsl(275, 85%, 52%)" stroke-width="0.5" opacity="0.3"/><line x1="52" y1="18" x2="53" y2="21" stroke="hsl(275, 85%, 52%)" stroke-width="0.5" opacity="0.3"/><line x1="43" y1="37" x2="42" y2="42" stroke="hsl(275, 85%, 52%)" stroke-width="0.5" opacity="0.3"/><line x1="39" y1="46" x2="38" y2="52" stroke="hsl(275, 85%, 52%)" stroke-width="0.5" opacity="0.3"/><line x1="52" y1="32" x2="53" y2="38" stroke="hsl(275, 85%, 52%)" stroke-width="0.5" opacity="0.3"/><line x1="43" y1="25" x2="42" y2="29" stroke="hsl(275, 85%, 52%)" stroke-width="0.5" opacity="0.3"/><line x1="39" y1="21" x2="38" y2="26" stroke="hsl(275, 85%, 52%)" stroke-width="0.5" opacity="0.3"/><line x1="52" y1="19" x2="53" y2="25" stroke="hsl(275, 85%, 52%)" stroke-width="0.5" opacity="0.3"/><line x1="58" y1="18" x2="59" y2="22" stroke="hsl(275, 85%, 52%)" stroke-width="0.5" opacity="0.3"/><line x1="46" y1="37" x2="47" y2="42" stroke="hsl(275, 85%, 52%)" stroke-width="0.5" opacity="0.3"/><line x1="55" y1="27" x2="54" y2="33" stroke="hsl(275, 85%, 52%)" stroke-width="0.5" opacity="0.3"/><line x1="60" y1="22" x2="61" y2="26" stroke="hsl(275, 85%, 52%)" stroke-width="0.5" opacity="0.3"/>

  <!-- Eyes -->
  <ellipse cx="44" cy="35" rx="6" ry="4.199999999999999" fill="#111"/>
  <ellipse cx="56" cy="35" rx="6" ry="4.199999999999999" fill="#111"/>
  
  <ellipse cx="44" cy="35" rx="3" ry="2.4000000000000004" fill="hsl(116, 96%, 64%)" opacity="0.9"/>
  <ellipse cx="56" cy="35" rx="3" ry="2.4000000000000004" fill="hsl(116, 96%, 64%)" opacity="0.9"/>
  <circle cx="45" cy="34.5" r="0.8999999999999999" fill="white" opacity="0.8"/>
  <circle cx="57" cy="34.5" r="0.8999999999999999" fill="white" opacity="0.8"/>
  

  <!-- Stat bars -->
  <rect x="8" y="86" width="8" height="6" rx="1" fill="#ef4444" opacity="0.25"/><rect x="22.5" y="86" width="8" height="6" rx="1" fill="#22c55e" opacity="0.25"/><rect x="37" y="86" width="8" height="6" rx="1" fill="#3b82f6" opacity="0.25"/><rect x="51.5" y="86" width="8" height="6" rx="1" fill="#f59e0b" opacity="0.25"/><rect x="66" y="83" width="8" height="9" rx="1" fill="#a855f7" opacity="0.25"/><rect x="80.5" y="89" width="8" height="3" rx="1" fill="#ec4899" opacity="0.25"/>

  <!-- Vignette -->
  <rect width="100" height="100" fill="url(#bg-iktotchi)" opacity="0.3"/>
</svg>