<svg xmlns="http://www.w3.org/2000/svg" viewBox="0 0 100 100" width="512" height="512">
  <defs>
    <radialGradient id="bg-tognath" cx="50%" cy="40%" r="60%">
      <stop offset="0%" stop-color="hsl(347, 57%, 31%)" stop-opacity="0.3"/>
      <stop offset="100%" stop-color="hsl(47, 17%, 9%)" stop-opacity="1"/>
    </radialGradient>
    <radialGradient id="glow-tognath" cx="50%" cy="40%" r="30%">
      <stop offset="0%" stop-color="hsl(227, 77%, 44%)" stop-opacity="0.15"/>
      <stop offset="100%" stop-color="hsl(227, 77%, 44%)" stop-opacity="0"/>
    </radialGradient>
  </defs>

  <!-- Background -->
  <rect width="100" height="100" fill="hsl(47, 17%, 9%)"/>
  <rect width="100" height="100" fill="url(#bg-tognath)"/>
  <circle cx="27" cy="44" r="0.5" fill="hsl(346, 86%, 61%)" opacity="0.15"/><circle cx="13" cy="22" r="0.5" fill="hsl(346, 86%, 61%)" opacity="0.15"/><circle cx="56" cy="61" r="0.5" fill="hsl(346, 86%, 61%)" opacity="0.15"/><circle cx="78" cy="30" r="0.5" fill="hsl(346, 86%, 61%)" opacity="0.15"/><circle cx="89" cy="15" r="0.5" fill="hsl(346, 86%, 61%)" opacity="0.15"/><circle cx="44" cy="7" r="0.5" fill="hsl(346, 86%, 61%)" opacity="0.15"/><circle cx="22" cy="53" r="0.5" fill="hsl(346, 86%, 61%)" opacity="0.15"/><circle cx="61" cy="76" r="0.5" fill="hsl(346, 86%, 61%)" opacity="0.15"/><circle cx="30" cy="38" r="0.5" fill="hsl(346, 86%, 61%)" opacity="0.15"/><circle cx="15" cy="69" r="0.5" fill="hsl(346, 86%, 61%)" opacity="0.15"/>

  <!-- Ambient glow -->
  <ellipse cx="50" cy="42" rx="35" ry="30" fill="url(#glow-tognath)"/>

  <!-- Head / Body silhouette -->
  <ellipse cx="50" cy="37" rx="18" ry="19" fill="hsl(347, 57%, 31%)" opacity="0.9"/>
  <ellipse cx="50" cy="37" rx="17" ry="18" fill="hsl(47, 17%, 9%)" opacity="0.3"/>

  <!-- Shoulders -->
  <ellipse cx="50" cy="64" rx="26" ry="12" fill="hsl(347, 57%, 31%)" opacity="0.7"/>

  <!-- Decorations (horns, tails, markings) -->
  <line x1="52" y1="34" x2="53" y2="38" stroke="hsl(227, 77%, 44%)" stroke-width="0.5" opacity="0.3"/><line x1="58" y1="26" x2="59" y2="29" stroke="hsl(227, 77%, 44%)" stroke-width="0.5" opacity="0.3"/><line x1="61" y1="41" x2="60" y2="46" stroke="hsl(227, 77%, 44%)" stroke-width="0.5" opacity="0.3"/><line x1="63" y1="48" x2="62" y2="52" stroke="hsl(227, 77%, 44%)" stroke-width="0.5" opacity="0.3"/><line x1="64" y1="52" x2="65" y2="57" stroke="hsl(227, 77%, 44%)" stroke-width="0.5" opacity="0.3"/><line x1="49" y1="35" x2="48" y2="41" stroke="hsl(227, 77%, 44%)" stroke-width="0.5" opacity="0.3"/><line x1="57" y1="26" x2="56" y2="32" stroke="hsl(227, 77%, 44%)" stroke-width="0.5" opacity="0.3"/><line x1="46" y1="41" x2="47" y2="45" stroke="hsl(227, 77%, 44%)" stroke-width="0.5" opacity="0.3"/><line x1="55" y1="29" x2="54" y2="32" stroke="hsl(227, 77%, 44%)" stroke-width="0.5" opacity="0.3"/><line x1="60" y1="23" x2="61" y2="28" stroke="hsl(227, 77%, 44%)" stroke-width="0.5" opacity="0.3"/><line x1="62" y1="20" x2="63" y2="24" stroke="hsl(227, 77%, 44%)" stroke-width="0.5" opacity="0.3"/><line x1="48" y1="38" x2="49" y2="41" stroke="hsl(227, 77%, 44%)" stroke-width="0.5" opacity="0.3"/>

  <!-- Eyes -->
  <ellipse cx="44" cy="35" rx="6" ry="4.199999999999999" fill="#111"/>
  <ellipse cx="56" cy="35" rx="6" ry="4.199999999999999" fill="#111"/>
  
  <ellipse cx="44" cy="35" rx="3" ry="2.4000000000000004" fill="hsl(346, 86%, 61%)" opacity="0.9"/>
  <ellipse cx="56" cy="35" rx="3" ry="2.4000000000000004" fill="hsl(346, 86%, 61%)" opacity="0.9"/>
  <circle cx="45" cy="34.5" r="0.8999999999999999" fill="white" opacity="0.8"/>
  <circle cx="57" cy="34.5" r="0.8999999999999999" fill="white" opacity="0.8"/>
  

  <!-- Stat bars -->
  <rect x="8" y="86" width="8" height="6" rx="1" fill="#ef4444" opacity="0.25"/><rect x="22.5" y="86" width="8" height="6" rx="1" fill="#22c55e" opacity="0.25"/><rect x="37" y="86" width="8" height="6" rx="1" fill="#3b82f6" opacity="0.25"/><rect x="51.5" y="86" width="8" height="6" rx="1" fill="#f59e0b" opacity="0.25"/><rect x="66" y="83" width="8" height="9" rx="1" fill="#a855f7" opacity="0.25"/><rect x="80.5" y="89" width="8" height="3" rx="1" fill="#ec4899" opacity="0.25"/>

  <!-- Vignette -->
  <rect width="100" height="100" fill="url(#bg-tognath)" opacity="0.3"/>
</svg>