<svg xmlns="http://www.w3.org/2000/svg" viewBox="0 0 100 100" width="512" height="512">
  <defs>
    <radialGradient id="bg-twi-lek" cx="50%" cy="40%" r="60%">
      <stop offset="0%" stop-color="hsl(205, 35%, 22%)" stop-opacity="0.3"/>
      <stop offset="100%" stop-color="hsl(247, 17%, 11%)" stop-opacity="1"/>
    </radialGradient>
    <radialGradient id="glow-twi-lek" cx="50%" cy="40%" r="30%">
      <stop offset="0%" stop-color="hsl(67, 77%, 41%)" stop-opacity="0.15"/>
      <stop offset="100%" stop-color="hsl(67, 77%, 41%)" stop-opacity="0"/>
    </radialGradient>
  </defs>

  <!-- Background -->
  <rect width="100" height="100" fill="hsl(247, 17%, 11%)"/>
  <rect width="100" height="100" fill="url(#bg-twi-lek)"/>
  <circle cx="47" cy="73" r="0.5" fill="hsl(206, 66%, 52%)" opacity="0.15"/><circle cx="73" cy="36" r="0.5" fill="hsl(206, 66%, 52%)" opacity="0.15"/><circle cx="86" cy="18" r="0.5" fill="hsl(206, 66%, 52%)" opacity="0.15"/><circle cx="93" cy="9" r="0.5" fill="hsl(206, 66%, 52%)" opacity="0.15"/><circle cx="46" cy="4" r="0.5" fill="hsl(206, 66%, 52%)" opacity="0.15"/><circle cx="73" cy="52" r="0.5" fill="hsl(206, 66%, 52%)" opacity="0.15"/><circle cx="36" cy="76" r="0.5" fill="hsl(206, 66%, 52%)" opacity="0.15"/><circle cx="18" cy="88" r="0.5" fill="hsl(206, 66%, 52%)" opacity="0.15"/><circle cx="9" cy="94" r="0.5" fill="hsl(206, 66%, 52%)" opacity="0.15"/><circle cx="4" cy="97" r="0.5" fill="hsl(206, 66%, 52%)" opacity="0.15"/>

  <!-- Ambient glow -->
  <ellipse cx="50" cy="42" rx="35" ry="30" fill="url(#glow-twi-lek)"/>

  <!-- Head / Body silhouette -->
  <ellipse cx="50" cy="37" rx="16" ry="19" fill="hsl(205, 35%, 22%)" opacity="0.9"/>
  <ellipse cx="50" cy="37" rx="15" ry="18" fill="hsl(247, 17%, 11%)" opacity="0.3"/>

  <!-- Shoulders -->
  <ellipse cx="50" cy="64" rx="24" ry="12" fill="hsl(205, 35%, 22%)" opacity="0.7"/>

  <!-- Decorations (horns, tails, markings) -->
  <path d="M46.64558733465542,44.599999999999994 Q45.301657208890035,61.199999999999996 39.95772708312465,67.8" fill="none" stroke="hsl(67, 77%, 41%)" stroke-width="3" stroke-linecap="round" opacity="0.7"/><path d="M53.35441266534458,44.599999999999994 Q58.698342791109965,61.199999999999996 60.04227291687535,67.8" fill="none" stroke="hsl(67, 77%, 41%)" stroke-width="3" stroke-linecap="round" opacity="0.7"/>

  <!-- Eyes -->
  <ellipse cx="44" cy="36" rx="6" ry="4.199999999999999" fill="#111"/>
  <ellipse cx="56" cy="36" rx="6" ry="4.199999999999999" fill="#111"/>
  
  <ellipse cx="44" cy="36" rx="3" ry="2.4000000000000004" fill="hsl(206, 66%, 52%)" opacity="0.9"/>
  <ellipse cx="56" cy="36" rx="3" ry="2.4000000000000004" fill="hsl(206, 66%, 52%)" opacity="0.9"/>
  <circle cx="45" cy="35.5" r="0.8999999999999999" fill="white" opacity="0.8"/>
  <circle cx="57" cy="35.5" r="0.8999999999999999" fill="white" opacity="0.8"/>
  

  <!-- Stat bars -->
  <rect x="8" y="89" width="8" height="3" rx="1" fill="#ef4444" opacity="0.25"/><rect x="22.5" y="86" width="8" height="6" rx="1" fill="#22c55e" opacity="0.25"/><rect x="37" y="86" width="8" height="6" rx="1" fill="#3b82f6" opacity="0.25"/><rect x="51.5" y="86" width="8" height="6" rx="1" fill="#f59e0b" opacity="0.25"/><rect x="66" y="86" width="8" height="6" rx="1" fill="#a855f7" opacity="0.25"/><rect x="80.5" y="83" width="8" height="9" rx="1" fill="#ec4899" opacity="0.25"/>

  <!-- Vignette -->
  <rect width="100" height="100" fill="url(#bg-twi-lek)" opacity="0.3"/>
</svg>