<svg xmlns="http://www.w3.org/2000/svg" viewBox="0 0 100 100" width="512" height="512">
  <defs>
    <radialGradient id="bg-vurk" cx="50%" cy="40%" r="60%">
      <stop offset="0%" stop-color="hsl(304, 54%, 34%)" stop-opacity="0.3"/>
      <stop offset="100%" stop-color="hsl(244, 14%, 6%)" stop-opacity="1"/>
    </radialGradient>
    <radialGradient id="glow-vurk" cx="50%" cy="40%" r="30%">
      <stop offset="0%" stop-color="hsl(64, 74%, 36%)" stop-opacity="0.15"/>
      <stop offset="100%" stop-color="hsl(64, 74%, 36%)" stop-opacity="0"/>
    </radialGradient>
  </defs>

  <!-- Background -->
  <rect width="100" height="100" fill="hsl(244, 14%, 6%)"/>
  <rect width="100" height="100" fill="url(#bg-vurk)"/>
  <polygon points="4,59 7.5,61 7.5,65 4,67 0.5,65 0.5,61" fill="none" stroke="hsl(64, 74%, 36%)" stroke-width="0.3" opacity="0.1"/><polygon points="52,77 55.5,79 55.5,83 52,85 48.5,83 48.5,79" fill="none" stroke="hsl(64, 74%, 36%)" stroke-width="0.3" opacity="0.1"/><polygon points="26,86 29.5,88 29.5,92 26,94 22.5,92 22.5,88" fill="none" stroke="hsl(64, 74%, 36%)" stroke-width="0.3" opacity="0.1"/><polygon points="63,41 66.5,43 66.5,47 63,49 59.5,47 59.5,43" fill="none" stroke="hsl(64, 74%, 36%)" stroke-width="0.3" opacity="0.1"/><polygon points="81,18 84.5,20 84.5,24 81,26 77.5,24 77.5,20" fill="none" stroke="hsl(64, 74%, 36%)" stroke-width="0.3" opacity="0.1"/><polygon points="90,57 93.5,59 93.5,63 90,65 86.5,63 86.5,59" fill="none" stroke="hsl(64, 74%, 36%)" stroke-width="0.3" opacity="0.1"/>

  <!-- Ambient glow -->
  <ellipse cx="50" cy="42" rx="35" ry="30" fill="url(#glow-vurk)"/>

  <!-- Head / Body silhouette -->
  <ellipse cx="50" cy="37" rx="18" ry="19" fill="hsl(304, 54%, 34%)" opacity="0.9"/>
  <ellipse cx="50" cy="37" rx="17" ry="18" fill="hsl(244, 14%, 6%)" opacity="0.3"/>

  <!-- Shoulders -->
  <ellipse cx="50" cy="64" rx="26" ry="12" fill="hsl(304, 54%, 34%)" opacity="0.7"/>

  <!-- Decorations (horns, tails, markings) -->
  

  <!-- Eyes -->
  <ellipse cx="45" cy="36" rx="6" ry="4.199999999999999" fill="#111"/>
  <ellipse cx="55" cy="36" rx="6" ry="4.199999999999999" fill="#111"/>
  
  <ellipse cx="45" cy="36" rx="3" ry="2.4000000000000004" fill="hsl(305, 85%, 64%)" opacity="0.9"/>
  <ellipse cx="55" cy="36" rx="3" ry="2.4000000000000004" fill="hsl(305, 85%, 64%)" opacity="0.9"/>
  <circle cx="46" cy="35.5" r="0.8999999999999999" fill="white" opacity="0.8"/>
  <circle cx="56" cy="35.5" r="0.8999999999999999" fill="white" opacity="0.8"/>
  

  <!-- Stat bars -->
  <rect x="8" y="86" width="8" height="6" rx="1" fill="#ef4444" opacity="0.25"/><rect x="22.5" y="86" width="8" height="6" rx="1" fill="#22c55e" opacity="0.25"/><rect x="37" y="86" width="8" height="6" rx="1" fill="#3b82f6" opacity="0.25"/><rect x="51.5" y="89" width="8" height="3" rx="1" fill="#f59e0b" opacity="0.25"/><rect x="66" y="86" width="8" height="6" rx="1" fill="#a855f7" opacity="0.25"/><rect x="80.5" y="83" width="8" height="9" rx="1" fill="#ec4899" opacity="0.25"/>

  <!-- Vignette -->
  <rect width="100" height="100" fill="url(#bg-vurk)" opacity="0.3"/>
</svg>