<svg xmlns="http://www.w3.org/2000/svg" viewBox="0 0 100 100" width="512" height="512">
  <defs>
    <radialGradient id="bg-wookie" cx="50%" cy="40%" r="60%">
      <stop offset="0%" stop-color="hsl(192, 62%, 39%)" stop-opacity="0.3"/>
      <stop offset="100%" stop-color="hsl(324, 14%, 5%)" stop-opacity="1"/>
    </radialGradient>
    <radialGradient id="glow-wookie" cx="50%" cy="40%" r="30%">
      <stop offset="0%" stop-color="hsl(144, 74%, 44%)" stop-opacity="0.15"/>
      <stop offset="100%" stop-color="hsl(144, 74%, 44%)" stop-opacity="0"/>
    </radialGradient>
  </defs>

  <!-- Background -->
  <rect width="100" height="100" fill="hsl(324, 14%, 5%)"/>
  <rect width="100" height="100" fill="url(#bg-wookie)"/>
  <polygon points="44,14 47.5,16 47.5,20 44,22 40.5,20 40.5,16" fill="none" stroke="hsl(144, 74%, 44%)" stroke-width="0.3" opacity="0.1"/><polygon points="72,5 75.5,7 75.5,11 72,13 68.5,11 68.5,7" fill="none" stroke="hsl(144, 74%, 44%)" stroke-width="0.3" opacity="0.1"/><polygon points="36,0 39.5,2 39.5,6 36,8 32.5,6 32.5,2" fill="none" stroke="hsl(144, 74%, 44%)" stroke-width="0.3" opacity="0.1"/><polygon points="18,48 21.5,50 21.5,54 18,56 14.5,54 14.5,50" fill="none" stroke="hsl(144, 74%, 44%)" stroke-width="0.3" opacity="0.1"/><polygon points="9,22 12.5,24 12.5,28 9,30 5.5,28 5.5,24" fill="none" stroke="hsl(144, 74%, 44%)" stroke-width="0.3" opacity="0.1"/><polygon points="4,9 7.5,11 7.5,15 4,17 0.5,15 0.5,11" fill="none" stroke="hsl(144, 74%, 44%)" stroke-width="0.3" opacity="0.1"/>

  <!-- Ambient glow -->
  <ellipse cx="50" cy="42" rx="35" ry="30" fill="url(#glow-wookie)"/>

  <!-- Head / Body silhouette -->
  <ellipse cx="50" cy="37" rx="20" ry="19" fill="hsl(192, 62%, 39%)" opacity="0.9"/>
  <ellipse cx="50" cy="37" rx="19" ry="18" fill="hsl(324, 14%, 5%)" opacity="0.3"/>

  <!-- Shoulders -->
  <ellipse cx="50" cy="64" rx="28" ry="12" fill="hsl(192, 62%, 39%)" opacity="0.7"/>

  <!-- Decorations (horns, tails, markings) -->
  <polygon points="44,18 42,13 46,13" fill="hsl(144, 74%, 44%)" opacity="0.8"/><polygon points="50,18 48,13 52,13" fill="hsl(144, 74%, 44%)" opacity="0.8"/><line x1="59" y1="42" x2="58" y2="46" stroke="hsl(144, 74%, 44%)" stroke-width="0.5" opacity="0.3"/><line x1="47" y1="30" x2="46" y2="33" stroke="hsl(144, 74%, 44%)" stroke-width="0.5" opacity="0.3"/><line x1="41" y1="43" x2="40" y2="46" stroke="hsl(144, 74%, 44%)" stroke-width="0.5" opacity="0.3"/><line x1="53" y1="30" x2="52" y2="35" stroke="hsl(144, 74%, 44%)" stroke-width="0.5" opacity="0.3"/><line x1="44" y1="24" x2="45" y2="28" stroke="hsl(144, 74%, 44%)" stroke-width="0.5" opacity="0.3"/><line x1="39" y1="40" x2="38" y2="45" stroke="hsl(144, 74%, 44%)" stroke-width="0.5" opacity="0.3"/><line x1="37" y1="29" x2="36" y2="35" stroke="hsl(144, 74%, 44%)" stroke-width="0.5" opacity="0.3"/><line x1="51" y1="42" x2="50" y2="48" stroke="hsl(144, 74%, 44%)" stroke-width="0.5" opacity="0.3"/><line x1="58" y1="49" x2="59" y2="53" stroke="hsl(144, 74%, 44%)" stroke-width="0.5" opacity="0.3"/><line x1="61" y1="33" x2="60" y2="36" stroke="hsl(144, 74%, 44%)" stroke-width="0.5" opacity="0.3"/><line x1="48" y1="25" x2="49" y2="28" stroke="hsl(144, 74%, 44%)" stroke-width="0.5" opacity="0.3"/><line x1="56" y1="40" x2="57" y2="43" stroke="hsl(144, 74%, 44%)" stroke-width="0.5" opacity="0.3"/>

  <!-- Eyes -->
  <ellipse cx="44" cy="37" rx="6" ry="4.199999999999999" fill="#111"/>
  <ellipse cx="56" cy="37" rx="6" ry="4.199999999999999" fill="#111"/>
  
  <ellipse cx="44" cy="37" rx="3" ry="2.4000000000000004" fill="hsl(191, 91%, 69%)" opacity="0.9"/>
  <ellipse cx="56" cy="37" rx="3" ry="2.4000000000000004" fill="hsl(191, 91%, 69%)" opacity="0.9"/>
  <circle cx="45" cy="36.5" r="0.8999999999999999" fill="white" opacity="0.8"/>
  <circle cx="57" cy="36.5" r="0.8999999999999999" fill="white" opacity="0.8"/>
  

  <!-- Stat bars -->
  <rect x="8" y="83" width="8" height="9" rx="1" fill="#ef4444" opacity="0.25"/><rect x="22.5" y="86" width="8" height="6" rx="1" fill="#22c55e" opacity="0.25"/><rect x="37" y="86" width="8" height="6" rx="1" fill="#3b82f6" opacity="0.25"/><rect x="51.5" y="86" width="8" height="6" rx="1" fill="#f59e0b" opacity="0.25"/><rect x="66" y="89" width="8" height="3" rx="1" fill="#a855f7" opacity="0.25"/><rect x="80.5" y="86" width="8" height="6" rx="1" fill="#ec4899" opacity="0.25"/>

  <!-- Vignette -->
  <rect width="100" height="100" fill="url(#bg-wookie)" opacity="0.3"/>
</svg>